<mxfile modified="2019-10-25T15:07:18.548Z" host="www.draw.io" agent="Mozilla/5.0 (Windows NT 10.0; Win64; x64) AppleWebKit/537.36 (KHTML, like Gecko) Chrome/77.0.3865.120 Safari/537.36" etag="FXR0EF3BFBZ3uReW7dPJ" version="12.1.7" type="github" pages="1">
  <diagram name="Page-1" id="97a40813-6b03-0c74-37c1-0168de264b11">
    <mxGraphModel dx="1000" dy="826" grid="1" gridSize="10" guides="1" tooltips="1" connect="1" arrows="1" fold="1" page="1" pageScale="1" pageWidth="1300" pageHeight="800" background="#ffffff" math="0" shadow="0">
      <root>
        <mxCell id="0"/>
        <mxCell id="1" parent="0"/>
        <mxCell id="jNn47Qxyokv80VDaubmx-1" style="edgeStyle=none;orthogonalLoop=1;jettySize=auto;html=1;shadow=0;endArrow=none;strokeColor=#CCCCCC;strokeWidth=1;fontSize=14;fontColor=#004C99;" edge="1" parent="1" source="jNn47Qxyokv80VDaubmx-7" target="jNn47Qxyokv80VDaubmx-12">
          <mxGeometry relative="1" as="geometry"/>
        </mxCell>
        <mxCell id="jNn47Qxyokv80VDaubmx-2" style="edgeStyle=none;orthogonalLoop=1;jettySize=auto;html=1;shadow=0;endArrow=none;strokeColor=#CCCCCC;strokeWidth=1;fontSize=14;fontColor=#004C99;" edge="1" parent="1" source="jNn47Qxyokv80VDaubmx-7" target="jNn47Qxyokv80VDaubmx-13">
          <mxGeometry relative="1" as="geometry"/>
        </mxCell>
        <mxCell id="jNn47Qxyokv80VDaubmx-3" style="edgeStyle=none;orthogonalLoop=1;jettySize=auto;html=1;shadow=0;endArrow=none;strokeColor=#CCCCCC;strokeWidth=1;fontSize=14;fontColor=#004C99;" edge="1" parent="1" source="jNn47Qxyokv80VDaubmx-7" target="jNn47Qxyokv80VDaubmx-14">
          <mxGeometry relative="1" as="geometry"/>
        </mxCell>
        <mxCell id="jNn47Qxyokv80VDaubmx-4" style="edgeStyle=none;orthogonalLoop=1;jettySize=auto;html=1;shadow=0;endArrow=none;strokeColor=#CCCCCC;strokeWidth=1;fontSize=14;fontColor=#004C99;" edge="1" parent="1" source="jNn47Qxyokv80VDaubmx-7" target="jNn47Qxyokv80VDaubmx-15">
          <mxGeometry relative="1" as="geometry"/>
        </mxCell>
        <mxCell id="jNn47Qxyokv80VDaubmx-5" style="edgeStyle=none;orthogonalLoop=1;jettySize=auto;html=1;shadow=0;endArrow=none;strokeColor=#CCCCCC;strokeWidth=1;fontSize=14;fontColor=#004C99;" edge="1" parent="1" source="jNn47Qxyokv80VDaubmx-7" target="jNn47Qxyokv80VDaubmx-10">
          <mxGeometry relative="1" as="geometry"/>
        </mxCell>
        <mxCell id="jNn47Qxyokv80VDaubmx-6" style="edgeStyle=none;orthogonalLoop=1;jettySize=auto;html=1;shadow=0;endArrow=none;strokeColor=#CCCCCC;strokeWidth=1;fontSize=14;fontColor=#004C99;" edge="1" parent="1" source="jNn47Qxyokv80VDaubmx-7" target="jNn47Qxyokv80VDaubmx-11">
          <mxGeometry relative="1" as="geometry"/>
        </mxCell>
        <mxCell id="jNn47Qxyokv80VDaubmx-7" value="Widgets" style="text;html=1;fontSize=20;fontColor=#004C99;fontStyle=1;verticalAlign=middle;" vertex="1" parent="1">
          <mxGeometry x="203.5" y="271" width="90" height="30" as="geometry"/>
        </mxCell>
        <mxCell id="jNn47Qxyokv80VDaubmx-8" value="Components" style="text;html=1;fontSize=30;fontColor=#004C99;fontStyle=1;verticalAlign=middle;" vertex="1" parent="1">
          <mxGeometry x="414.5" y="216" width="190" height="40" as="geometry"/>
        </mxCell>
        <mxCell id="jNn47Qxyokv80VDaubmx-9" value="" style="endArrow=none;html=1;shadow=0;strokeColor=#CCCCCC;strokeWidth=3;fontSize=14;fontColor=#004C99;curved=1;verticalAlign=middle;" edge="1" parent="1" source="jNn47Qxyokv80VDaubmx-8" target="jNn47Qxyokv80VDaubmx-7">
          <mxGeometry width="50" height="50" relative="1" as="geometry">
            <mxPoint x="254.5" y="144.67500000000018" as="sourcePoint"/>
            <mxPoint x="340.87931034482745" y="297.5" as="targetPoint"/>
            <Array as="points">
              <mxPoint x="308.5" y="221"/>
            </Array>
          </mxGeometry>
        </mxCell>
        <mxCell id="jNn47Qxyokv80VDaubmx-10" value="#Connector" style="text;html=1;fontSize=14;fontColor=#004C99;" vertex="1" parent="1">
          <mxGeometry x="88.5" y="201" width="90" height="20" as="geometry"/>
        </mxCell>
        <mxCell id="jNn47Qxyokv80VDaubmx-11" value="#CrayonColors" style="text;html=1;fontSize=14;fontColor=#004C99;" vertex="1" parent="1">
          <mxGeometry x="198.5" y="161" width="110" height="20" as="geometry"/>
        </mxCell>
        <mxCell id="jNn47Qxyokv80VDaubmx-12" value="#Dialog" style="text;html=1;fontSize=14;fontColor=#004C99;" vertex="1" parent="1">
          <mxGeometry x="178.5" y="371" width="60" height="20" as="geometry"/>
        </mxCell>
        <mxCell id="jNn47Qxyokv80VDaubmx-13" value="#Menu" style="text;html=1;fontSize=14;fontColor=#004C99;" vertex="1" parent="1">
          <mxGeometry x="278.5" y="351" width="60" height="20" as="geometry"/>
        </mxCell>
        <mxCell id="jNn47Qxyokv80VDaubmx-14" value="Separator" style="text;html=1;fontSize=14;fontColor=#004C99;" vertex="1" parent="1">
          <mxGeometry x="48.5" y="271" width="80" height="20" as="geometry"/>
        </mxCell>
        <mxCell id="jNn47Qxyokv80VDaubmx-15" value="Script" style="text;html=1;fontSize=14;fontColor=#004C99;" vertex="1" parent="1">
          <mxGeometry x="58.5" y="341" width="50" height="20" as="geometry"/>
        </mxCell>
        <mxCell id="jNn47Qxyokv80VDaubmx-16" style="edgeStyle=none;orthogonalLoop=1;jettySize=auto;html=1;shadow=0;endArrow=none;strokeColor=#CCCCCC;strokeWidth=1;fontSize=14;fontColor=#004C99;" edge="1" parent="1" source="jNn47Qxyokv80VDaubmx-18" target="jNn47Qxyokv80VDaubmx-20">
          <mxGeometry relative="1" as="geometry"/>
        </mxCell>
        <mxCell id="jNn47Qxyokv80VDaubmx-17" style="edgeStyle=none;orthogonalLoop=1;jettySize=auto;html=1;shadow=0;endArrow=none;strokeColor=#CCCCCC;strokeWidth=1;fontSize=14;fontColor=#004C99;" edge="1" parent="1" source="jNn47Qxyokv80VDaubmx-18" target="jNn47Qxyokv80VDaubmx-21">
          <mxGeometry relative="1" as="geometry"/>
        </mxCell>
        <mxCell id="jNn47Qxyokv80VDaubmx-18" value="Text Editing" style="text;html=1;fontSize=20;fontColor=#004C99;fontStyle=1;verticalAlign=middle;" vertex="1" parent="1">
          <mxGeometry x="374" y="132" width="120" height="30" as="geometry"/>
        </mxCell>
        <mxCell id="jNn47Qxyokv80VDaubmx-19" value="" style="endArrow=none;html=1;shadow=0;strokeColor=#CCCCCC;strokeWidth=3;fontSize=14;fontColor=#004C99;curved=1;verticalAlign=middle;" edge="1" parent="1" source="jNn47Qxyokv80VDaubmx-8" target="jNn47Qxyokv80VDaubmx-18">
          <mxGeometry width="50" height="50" relative="1" as="geometry">
            <mxPoint x="424.5" y="238.2602739726026" as="sourcePoint"/>
            <mxPoint x="275.64285714285734" y="281" as="targetPoint"/>
            <Array as="points">
              <mxPoint x="424" y="179"/>
            </Array>
          </mxGeometry>
        </mxCell>
        <mxCell id="jNn47Qxyokv80VDaubmx-20" value="LivelyCodeMirror" style="text;html=1;resizable=0;points=[];autosize=1;align=left;verticalAlign=top;spacingTop=-4;fontSize=14;fontColor=#004C99;" vertex="1" parent="1">
          <mxGeometry x="280" y="78" width="120" height="20" as="geometry"/>
        </mxCell>
        <mxCell id="jNn47Qxyokv80VDaubmx-21" value="LivelyEditor" style="text;html=1;resizable=0;points=[];autosize=1;align=left;verticalAlign=top;spacingTop=-4;fontSize=14;fontColor=#004C99;" vertex="1" parent="1">
          <mxGeometry x="482" y="49" width="90" height="20" as="geometry"/>
        </mxCell>
        <mxCell id="jNn47Qxyokv80VDaubmx-22" style="edgeStyle=none;orthogonalLoop=1;jettySize=auto;html=1;shadow=0;endArrow=none;strokeColor=#CCCCCC;strokeWidth=1;fontSize=14;fontColor=#004C99;" edge="1" parent="1" source="jNn47Qxyokv80VDaubmx-28" target="jNn47Qxyokv80VDaubmx-30">
          <mxGeometry relative="1" as="geometry"/>
        </mxCell>
        <mxCell id="jNn47Qxyokv80VDaubmx-23" style="edgeStyle=none;orthogonalLoop=1;jettySize=auto;html=1;shadow=0;endArrow=none;strokeColor=#CCCCCC;strokeWidth=1;fontSize=14;fontColor=#004C99;" edge="1" parent="1" source="jNn47Qxyokv80VDaubmx-28" target="jNn47Qxyokv80VDaubmx-33">
          <mxGeometry relative="1" as="geometry"/>
        </mxCell>
        <mxCell id="jNn47Qxyokv80VDaubmx-24" style="edgeStyle=none;orthogonalLoop=1;jettySize=auto;html=1;shadow=0;endArrow=none;strokeColor=#CCCCCC;strokeWidth=1;fontSize=14;fontColor=#004C99;" edge="1" parent="1" source="jNn47Qxyokv80VDaubmx-28" target="jNn47Qxyokv80VDaubmx-32">
          <mxGeometry relative="1" as="geometry"/>
        </mxCell>
        <mxCell id="jNn47Qxyokv80VDaubmx-25" style="edgeStyle=none;orthogonalLoop=1;jettySize=auto;html=1;shadow=0;endArrow=none;strokeColor=#CCCCCC;strokeWidth=1;fontSize=14;fontColor=#004C99;" edge="1" parent="1" source="jNn47Qxyokv80VDaubmx-28" target="jNn47Qxyokv80VDaubmx-34">
          <mxGeometry relative="1" as="geometry"/>
        </mxCell>
        <mxCell id="jNn47Qxyokv80VDaubmx-26" style="edgeStyle=none;orthogonalLoop=1;jettySize=auto;html=1;shadow=0;endArrow=none;strokeColor=#CCCCCC;strokeWidth=1;fontSize=14;fontColor=#004C99;" edge="1" parent="1" source="jNn47Qxyokv80VDaubmx-28" target="jNn47Qxyokv80VDaubmx-35">
          <mxGeometry relative="1" as="geometry"/>
        </mxCell>
        <mxCell id="jNn47Qxyokv80VDaubmx-27" style="edgeStyle=none;orthogonalLoop=1;jettySize=auto;html=1;shadow=0;endArrow=none;strokeColor=#CCCCCC;strokeWidth=1;fontSize=14;fontColor=#004C99;" edge="1" parent="1" source="jNn47Qxyokv80VDaubmx-28" target="jNn47Qxyokv80VDaubmx-31">
          <mxGeometry relative="1" as="geometry"/>
        </mxCell>
        <mxCell id="jNn47Qxyokv80VDaubmx-28" value="Content" style="text;html=1;fontSize=20;fontColor=#004C99;fontStyle=1;verticalAlign=middle;" vertex="1" parent="1">
          <mxGeometry x="388.5" y="541" width="90" height="30" as="geometry"/>
        </mxCell>
        <mxCell id="jNn47Qxyokv80VDaubmx-29" value="" style="endArrow=none;html=1;shadow=0;strokeColor=#CCCCCC;strokeWidth=3;fontSize=14;fontColor=#004C99;curved=1;verticalAlign=middle;" edge="1" parent="1" source="jNn47Qxyokv80VDaubmx-8" target="jNn47Qxyokv80VDaubmx-28">
          <mxGeometry width="50" height="50" relative="1" as="geometry">
            <mxPoint x="424.5" y="238.91044776119406" as="sourcePoint"/>
            <mxPoint x="275.64285714285734" y="281" as="targetPoint"/>
            <Array as="points">
              <mxPoint x="359.5" y="356.5"/>
            </Array>
          </mxGeometry>
        </mxCell>
        <mxCell id="jNn47Qxyokv80VDaubmx-30" value="&lt;div&gt;#LivelyMarkdown&lt;/div&gt;" style="text;html=1;resizable=0;points=[];autosize=1;align=left;verticalAlign=top;spacingTop=-4;fontSize=14;fontColor=#004C99;" vertex="1" parent="1">
          <mxGeometry x="278.5" y="592.5" width="120" height="20" as="geometry"/>
        </mxCell>
        <mxCell id="jNn47Qxyokv80VDaubmx-31" value="&lt;a&gt;#LivelyPresentation&lt;br&gt;&lt;/a&gt;" style="text;html=1;resizable=0;points=[];autosize=1;align=left;verticalAlign=top;spacingTop=-4;fontSize=14;fontColor=#004C99;" vertex="1" parent="1">
          <mxGeometry x="436.5" y="499" width="140" height="20" as="geometry"/>
        </mxCell>
        <mxCell id="jNn47Qxyokv80VDaubmx-32" value="&lt;a&gt;#LivelyEssay&lt;/a&gt;" style="text;html=1;resizable=0;points=[];autosize=1;align=left;verticalAlign=top;spacingTop=-4;fontSize=14;fontColor=#004C99;" vertex="1" parent="1">
          <mxGeometry x="423.5" y="619" width="100" height="20" as="geometry"/>
        </mxCell>
        <mxCell id="jNn47Qxyokv80VDaubmx-33" value="#PDF" style="text;html=1;resizable=0;points=[];autosize=1;align=left;verticalAlign=top;spacingTop=-4;fontSize=14;fontColor=#004C99;" vertex="1" parent="1">
          <mxGeometry x="367.5" y="624" width="50" height="20" as="geometry"/>
        </mxCell>
        <mxCell id="jNn47Qxyokv80VDaubmx-34" value="#Table" style="text;html=1;resizable=0;points=[];autosize=1;align=left;verticalAlign=top;spacingTop=-4;fontSize=14;fontColor=#004C99;" vertex="1" parent="1">
          <mxGeometry x="523.5" y="584.5" width="60" height="20" as="geometry"/>
        </mxCell>
        <mxCell id="jNn47Qxyokv80VDaubmx-35" value="#LivelyDrawboard&amp;nbsp;" style="text;html=1;resizable=0;points=[];autosize=1;align=left;verticalAlign=top;spacingTop=-4;fontSize=14;fontColor=#004C99;" vertex="1" parent="1">
          <mxGeometry x="531.5" y="537.5" width="130" height="20" as="geometry"/>
        </mxCell>
        <mxCell id="jNn47Qxyokv80VDaubmx-36" style="edgeStyle=none;orthogonalLoop=1;jettySize=auto;html=1;shadow=0;endArrow=none;strokeColor=#CCCCCC;strokeWidth=1;fontSize=14;fontColor=#004C99;verticalAlign=middle;" edge="1" parent="1" source="jNn47Qxyokv80VDaubmx-41" target="jNn47Qxyokv80VDaubmx-45">
          <mxGeometry relative="1" as="geometry">
            <mxPoint x="605" y="99" as="targetPoint"/>
          </mxGeometry>
        </mxCell>
        <mxCell id="jNn47Qxyokv80VDaubmx-37" style="edgeStyle=none;orthogonalLoop=1;jettySize=auto;html=1;shadow=0;endArrow=none;strokeColor=#CCCCCC;strokeWidth=1;fontSize=14;fontColor=#004C99;verticalAlign=middle;" edge="1" parent="1" source="jNn47Qxyokv80VDaubmx-41" target="jNn47Qxyokv80VDaubmx-47">
          <mxGeometry relative="1" as="geometry">
            <mxPoint x="753.9179104477612" y="94" as="targetPoint"/>
          </mxGeometry>
        </mxCell>
        <mxCell id="jNn47Qxyokv80VDaubmx-38" style="edgeStyle=none;orthogonalLoop=1;jettySize=auto;html=1;shadow=0;endArrow=none;strokeColor=#CCCCCC;strokeWidth=1;fontSize=14;fontColor=#004C99;verticalAlign=middle;" edge="1" parent="1" source="jNn47Qxyokv80VDaubmx-41" target="jNn47Qxyokv80VDaubmx-46">
          <mxGeometry relative="1" as="geometry"/>
        </mxCell>
        <mxCell id="jNn47Qxyokv80VDaubmx-39" style="edgeStyle=none;orthogonalLoop=1;jettySize=auto;html=1;shadow=0;endArrow=none;strokeColor=#CCCCCC;strokeWidth=1;fontSize=14;fontColor=#004C99;verticalAlign=middle;" edge="1" parent="1" source="jNn47Qxyokv80VDaubmx-41" target="jNn47Qxyokv80VDaubmx-43">
          <mxGeometry relative="1" as="geometry"/>
        </mxCell>
        <mxCell id="jNn47Qxyokv80VDaubmx-40" style="edgeStyle=none;orthogonalLoop=1;jettySize=auto;html=1;shadow=0;endArrow=none;strokeColor=#CCCCCC;strokeWidth=1;fontSize=14;fontColor=#004C99;verticalAlign=middle;" edge="1" parent="1" source="jNn47Qxyokv80VDaubmx-41" target="jNn47Qxyokv80VDaubmx-44">
          <mxGeometry relative="1" as="geometry"/>
        </mxCell>
        <mxCell id="jNn47Qxyokv80VDaubmx-41" value="UI Components" style="text;html=1;fontSize=20;fontColor=#004C99;fontStyle=1;verticalAlign=middle;" vertex="1" parent="1">
          <mxGeometry x="640.5" y="131" width="150" height="30" as="geometry"/>
        </mxCell>
        <mxCell id="jNn47Qxyokv80VDaubmx-42" value="" style="endArrow=none;html=1;shadow=0;strokeColor=#CCCCCC;strokeWidth=3;fontSize=14;fontColor=#004C99;curved=1;verticalAlign=middle;" edge="1" parent="1" source="jNn47Qxyokv80VDaubmx-8" target="jNn47Qxyokv80VDaubmx-41">
          <mxGeometry width="50" height="50" relative="1" as="geometry">
            <mxPoint x="512.3888888888887" y="266" as="sourcePoint"/>
            <mxPoint x="521.5" y="350.99999999999955" as="targetPoint"/>
            <Array as="points">
              <mxPoint x="576" y="179"/>
            </Array>
          </mxGeometry>
        </mxCell>
        <mxCell id="jNn47Qxyokv80VDaubmx-43" value="&lt;div style=&quot;font-size: 10px;&quot;&gt;&lt;span style=&quot;font-size: 10px;&quot;&gt;#LivelyPrompt&lt;/span&gt;&lt;br style=&quot;font-size: 10px;&quot;&gt;&lt;/div&gt;" style="text;html=1;resizable=0;points=[];autosize=1;align=left;verticalAlign=middle;spacingTop=-4;fontSize=10;fontColor=#004C99;" vertex="1" parent="1">
          <mxGeometry x="800" y="191" width="80" height="10" as="geometry"/>
        </mxCell>
        <mxCell id="jNn47Qxyokv80VDaubmx-44" value="#LivelyError" style="text;html=1;fontSize=10;fontColor=#004C99;verticalAlign=middle;" vertex="1" parent="1">
          <mxGeometry x="695" y="199" width="70" height="20" as="geometry"/>
        </mxCell>
        <mxCell id="jNn47Qxyokv80VDaubmx-45" value="#LivelyConfirm&lt;br style=&quot;font-size: 10px;&quot;&gt;" style="text;html=1;resizable=0;points=[];autosize=1;align=left;verticalAlign=middle;fontSize=10;fontColor=#004C99;" vertex="1" parent="1">
          <mxGeometry x="584" y="83" width="80" height="10" as="geometry"/>
        </mxCell>
        <mxCell id="jNn47Qxyokv80VDaubmx-46" value="&lt;div style=&quot;font-size: 10px&quot;&gt;#LivelyProgress&lt;/div&gt;" style="text;html=1;resizable=0;points=[];autosize=1;align=left;verticalAlign=middle;fontSize=10;fontColor=#004C99;" vertex="1" parent="1">
          <mxGeometry x="815" y="94" width="90" height="10" as="geometry"/>
        </mxCell>
        <mxCell id="jNn47Qxyokv80VDaubmx-47" value="#LivelyNotification" style="text;html=1;resizable=0;points=[];autosize=1;align=left;verticalAlign=top;spacingTop=-4;fontSize=10;fontColor=#004C99;" vertex="1" parent="1">
          <mxGeometry x="706" y="59" width="100" height="10" as="geometry"/>
        </mxCell>
        <mxCell id="jNn47Qxyokv80VDaubmx-48" style="edgeStyle=none;orthogonalLoop=1;jettySize=auto;html=1;shadow=0;endArrow=none;strokeColor=#CCCCCC;strokeWidth=1;fontSize=10;fontColor=#004C99;" edge="1" parent="1" source="jNn47Qxyokv80VDaubmx-54" target="jNn47Qxyokv80VDaubmx-56">
          <mxGeometry relative="1" as="geometry"/>
        </mxCell>
        <mxCell id="jNn47Qxyokv80VDaubmx-49" style="edgeStyle=none;orthogonalLoop=1;jettySize=auto;html=1;shadow=0;endArrow=none;strokeColor=#CCCCCC;strokeWidth=1;fontSize=10;fontColor=#004C99;" edge="1" parent="1" source="jNn47Qxyokv80VDaubmx-54" target="jNn47Qxyokv80VDaubmx-59">
          <mxGeometry relative="1" as="geometry"/>
        </mxCell>
        <mxCell id="jNn47Qxyokv80VDaubmx-50" style="edgeStyle=none;orthogonalLoop=1;jettySize=auto;html=1;shadow=0;endArrow=none;strokeColor=#CCCCCC;strokeWidth=1;fontSize=10;fontColor=#004C99;" edge="1" parent="1" source="jNn47Qxyokv80VDaubmx-54" target="jNn47Qxyokv80VDaubmx-60">
          <mxGeometry relative="1" as="geometry"/>
        </mxCell>
        <mxCell id="jNn47Qxyokv80VDaubmx-51" style="edgeStyle=none;orthogonalLoop=1;jettySize=auto;html=1;shadow=0;endArrow=none;strokeColor=#CCCCCC;strokeWidth=1;fontSize=10;fontColor=#004C99;" edge="1" parent="1" source="jNn47Qxyokv80VDaubmx-54" target="jNn47Qxyokv80VDaubmx-61">
          <mxGeometry relative="1" as="geometry"/>
        </mxCell>
        <mxCell id="jNn47Qxyokv80VDaubmx-52" style="edgeStyle=none;orthogonalLoop=1;jettySize=auto;html=1;shadow=0;endArrow=none;strokeColor=#CCCCCC;strokeWidth=1;fontSize=10;fontColor=#004C99;" edge="1" parent="1" source="jNn47Qxyokv80VDaubmx-54" target="jNn47Qxyokv80VDaubmx-57">
          <mxGeometry relative="1" as="geometry"/>
        </mxCell>
        <mxCell id="jNn47Qxyokv80VDaubmx-53" style="edgeStyle=none;orthogonalLoop=1;jettySize=auto;html=1;shadow=0;endArrow=none;strokeColor=#CCCCCC;strokeWidth=1;fontSize=10;fontColor=#004C99;" edge="1" parent="1" source="jNn47Qxyokv80VDaubmx-54" target="jNn47Qxyokv80VDaubmx-62">
          <mxGeometry relative="1" as="geometry"/>
        </mxCell>
        <mxCell id="jNn47Qxyokv80VDaubmx-54" value="D3 Visualizations" style="text;html=1;fontSize=20;fontColor=#004C99;fontStyle=1;verticalAlign=middle;" vertex="1" parent="1">
          <mxGeometry x="919.5" y="456.5" width="170" height="30" as="geometry"/>
        </mxCell>
        <mxCell id="jNn47Qxyokv80VDaubmx-55" value="" style="endArrow=none;html=1;shadow=0;strokeColor=#CCCCCC;strokeWidth=3;fontSize=14;fontColor=#004C99;curved=1;verticalAlign=middle;" edge="1" parent="1" source="jNn47Qxyokv80VDaubmx-8" target="jNn47Qxyokv80VDaubmx-54">
          <mxGeometry width="50" height="50" relative="1" as="geometry">
            <mxPoint x="542.833333333333" y="226" as="sourcePoint"/>
            <mxPoint x="662.090909090909" y="171" as="targetPoint"/>
            <Array as="points">
              <mxPoint x="542.5" y="336.5"/>
            </Array>
          </mxGeometry>
        </mxCell>
        <mxCell id="jNn47Qxyokv80VDaubmx-56" value="#D3PolymetricView" style="text;html=1;fontSize=10;fontColor=#004C99;" vertex="1" parent="1">
          <mxGeometry x="860" y="381" width="100" height="20" as="geometry"/>
        </mxCell>
        <mxCell id="jNn47Qxyokv80VDaubmx-57" value="#D3Barchart" style="text;html=1;fontSize=10;fontColor=#004C99;" vertex="1" parent="1">
          <mxGeometry x="1024.5" y="371" width="70" height="20" as="geometry"/>
        </mxCell>
        <mxCell id="jNn47Qxyokv80VDaubmx-58" value="" style="shape=image;verticalLabelPosition=bottom;labelBackgroundColor=#ffffff;verticalAlign=top;aspect=fixed;imageAspect=0;image=https://lively-kernel.org/lively4/lively4-jens/doc/presentation/treemap_filesize.png;" vertex="1" parent="1">
          <mxGeometry x="715.5" y="539.5" width="114" height="68" as="geometry"/>
        </mxCell>
        <mxCell id="jNn47Qxyokv80VDaubmx-59" value="#D3TreeMap" style="text;html=1;fontSize=10;fontColor=#004C99;" vertex="1" parent="1">
          <mxGeometry x="769.5" y="516.5" width="70" height="20" as="geometry"/>
        </mxCell>
        <mxCell id="jNn47Qxyokv80VDaubmx-60" value="#D3RadialTree" style="text;html=1;fontSize=10;fontColor=#004C99;" vertex="1" parent="1">
          <mxGeometry x="944.5" y="566.5" width="80" height="20" as="geometry"/>
        </mxCell>
        <mxCell id="jNn47Qxyokv80VDaubmx-61" value="#D3Boxplot" style="text;html=1;fontSize=10;fontColor=#004C99;" vertex="1" parent="1">
          <mxGeometry x="1129.5" y="371" width="70" height="20" as="geometry"/>
        </mxCell>
        <mxCell id="jNn47Qxyokv80VDaubmx-62" value="#D3BundleView" style="text;html=1;fontSize=10;fontColor=#004C99;" vertex="1" parent="1">
          <mxGeometry x="1149.5" y="539.5" width="90" height="20" as="geometry"/>
        </mxCell>
        <mxCell id="jNn47Qxyokv80VDaubmx-63" value="" style="shape=image;verticalLabelPosition=bottom;labelBackgroundColor=#ffffff;verticalAlign=top;aspect=fixed;imageAspect=0;image=https://lively-kernel.org/lively4/lively4-jens/src/components/d3/d3-radialtree.png;" vertex="1" parent="1">
          <mxGeometry x="937.5" y="591.5" width="102" height="107" as="geometry"/>
        </mxCell>
        <mxCell id="jNn47Qxyokv80VDaubmx-64" value="" style="shape=image;verticalLabelPosition=bottom;labelBackgroundColor=#ffffff;verticalAlign=top;aspect=fixed;imageAspect=0;image=https://lively-kernel.org/lively4/lively4-jens/src/components/d3/d3-barchart.png;" vertex="1" parent="1">
          <mxGeometry x="1001.5" y="340" width="103" height="33" as="geometry"/>
        </mxCell>
        <mxCell id="jNn47Qxyokv80VDaubmx-65" value="" style="shape=image;verticalLabelPosition=bottom;labelBackgroundColor=#ffffff;verticalAlign=top;aspect=fixed;imageAspect=0;image=https://lively-kernel.org/lively4/lively4-jens/src/components/d3/d3-boxplot.png;" vertex="1" parent="1">
          <mxGeometry x="1129.5" y="306.5" width="120" height="67" as="geometry"/>
        </mxCell>
        <mxCell id="jNn47Qxyokv80VDaubmx-66" value="" style="shape=image;verticalLabelPosition=bottom;labelBackgroundColor=#ffffff;verticalAlign=top;aspect=fixed;imageAspect=0;image=https://lively-kernel.org/lively4/lively4-jens/doc/presentation/bundleview_modules_contextjs.png;" vertex="1" parent="1">
          <mxGeometry x="1149.5" y="560.5" width="91" height="86" as="geometry"/>
        </mxCell>
        <mxCell id="jNn47Qxyokv80VDaubmx-67" value="" style="shape=image;verticalLabelPosition=bottom;labelBackgroundColor=#ffffff;verticalAlign=top;aspect=fixed;imageAspect=0;image=https://lively-kernel.org/lively4/lively4-jens/doc/presentation/d3_polymetricview.png;" vertex="1" parent="1">
          <mxGeometry x="839.5" y="320.5" width="111" height="61" as="geometry"/>
        </mxCell>
        <mxCell id="jNn47Qxyokv80VDaubmx-68" value="#Graphviz" style="text;html=1;fontSize=20;fontColor=#004C99;fontStyle=1;verticalAlign=middle;" vertex="1" parent="1">
          <mxGeometry x="800" y="701.5" width="70" height="30" as="geometry"/>
        </mxCell>
        <mxCell id="jNn47Qxyokv80VDaubmx-69" value="Interactive Object Graph" style="text;html=1;fontSize=14;fontColor=#004C99;spacingTop=-4;" vertex="1" parent="1">
          <mxGeometry x="622.5" y="726.5" width="170" height="20" as="geometry"/>
        </mxCell>
        <mxCell id="jNn47Qxyokv80VDaubmx-70" style="edgeStyle=none;orthogonalLoop=1;jettySize=auto;html=1;shadow=0;endArrow=none;strokeColor=#CCCCCC;strokeWidth=1;fontSize=14;fontColor=#004C99;" edge="1" parent="1" source="jNn47Qxyokv80VDaubmx-68" target="jNn47Qxyokv80VDaubmx-69">
          <mxGeometry relative="1" as="geometry">
            <mxPoint x="418.5" y="545.4375000000005" as="sourcePoint"/>
            <mxPoint x="463.5" y="559.875" as="targetPoint"/>
          </mxGeometry>
        </mxCell>
        <mxCell id="jNn47Qxyokv80VDaubmx-71" value="" style="endArrow=none;html=1;shadow=0;strokeColor=#CCCCCC;strokeWidth=3;fontSize=14;fontColor=#004C99;curved=1;verticalAlign=middle;" edge="1" parent="1" source="jNn47Qxyokv80VDaubmx-68" target="jNn47Qxyokv80VDaubmx-54">
          <mxGeometry width="50" height="50" relative="1" as="geometry">
            <mxPoint x="526.0671641791041" y="266" as="sourcePoint"/>
            <mxPoint x="963.1666666666661" y="466.5" as="targetPoint"/>
          </mxGeometry>
        </mxCell>
      </root>
    </mxGraphModel>
  </diagram>
</mxfile>
